<mxfile host="app.diagrams.net" agent="Mozilla/5.0 (Macintosh; Intel Mac OS X 10.15; rv:128.0) Gecko/20100101 Firefox/128.0" version="24.7.6">
  <diagram name="Page-1" id="nqC-DH8FmP6kUcyRzc__">
    <mxGraphModel>
      <root>
        <mxCell id="0" />
        <mxCell id="1" parent="0" />
        <mxCell id="2" value="AWS_DynamoDB" style="ellipse;aspect=fixed;strokeWidth=2;whiteSpace=wrap;" vertex="1" parent="1">
          <mxGeometry x="344" y="121" width="135" height="135" as="geometry" />
        </mxCell>
        <mxCell id="3" value="Primary Key" style="whiteSpace=wrap;strokeWidth=2;" vertex="1" parent="1">
          <mxGeometry x="181" y="105" width="127" height="48" as="geometry" />
        </mxCell>
        <mxCell id="4" value="Partition Key" style="rounded=1;absoluteArcSize=1;arcSize=14;whiteSpace=wrap;strokeWidth=2;" vertex="1" parent="1">
          <mxGeometry x="15" y="154" width="114" height="38" as="geometry" />
        </mxCell>
        <mxCell id="5" value="Sort Key" style="rounded=1;absoluteArcSize=1;arcSize=14;whiteSpace=wrap;strokeWidth=2;" vertex="1" parent="1">
          <mxGeometry x="178" y="15" width="81" height="38" as="geometry" />
        </mxCell>
        <mxCell id="6" value="Secondary Indexes" style="whiteSpace=wrap;strokeWidth=2;" vertex="1" parent="1">
          <mxGeometry x="479" y="101" width="174" height="48" as="geometry" />
        </mxCell>
        <mxCell id="7" value="Local Secondary Indexes" style="rounded=1;absoluteArcSize=1;arcSize=14;whiteSpace=wrap;strokeWidth=2;" vertex="1" parent="1">
          <mxGeometry x="521" y="17" width="197" height="38" as="geometry" />
        </mxCell>
        <mxCell id="8" value="Global Secondary Indexes" style="rounded=1;absoluteArcSize=1;arcSize=14;whiteSpace=wrap;strokeWidth=2;" vertex="1" parent="1">
          <mxGeometry x="681" y="159" width="205" height="38" as="geometry" />
        </mxCell>
        <mxCell id="9" value="Data Model" style="whiteSpace=wrap;strokeWidth=2;" vertex="1" parent="1">
          <mxGeometry x="346" y="262" width="122" height="48" as="geometry" />
        </mxCell>
        <mxCell id="10" value="Item" style="rounded=1;absoluteArcSize=1;arcSize=14;whiteSpace=wrap;strokeWidth=2;" vertex="1" parent="1">
          <mxGeometry x="390" y="363" width="55" height="38" as="geometry" />
        </mxCell>
        <mxCell id="11" style="endArrow=none" edge="1" parent="1" source="2" target="3">
          <mxGeometry relative="1" as="geometry" />
        </mxCell>
        <mxCell id="12" style="endArrow=none" edge="1" parent="1" source="2" target="6">
          <mxGeometry relative="1" as="geometry" />
        </mxCell>
        <mxCell id="13" style="endArrow=none" edge="1" parent="1" source="2" target="9">
          <mxGeometry relative="1" as="geometry" />
        </mxCell>
        <mxCell id="14" style="endArrow=none" edge="1" parent="1" source="3" target="4">
          <mxGeometry relative="1" as="geometry" />
        </mxCell>
        <mxCell id="15" style="endArrow=none" edge="1" parent="1" source="3" target="5">
          <mxGeometry relative="1" as="geometry" />
        </mxCell>
        <mxCell id="16" style="endArrow=none" edge="1" parent="1" source="6" target="7">
          <mxGeometry relative="1" as="geometry" />
        </mxCell>
        <mxCell id="17" style="endArrow=none" edge="1" parent="1" source="6" target="8">
          <mxGeometry relative="1" as="geometry" />
        </mxCell>
        <mxCell id="18" style="endArrow=none" edge="1" parent="1" source="9" target="10">
          <mxGeometry relative="1" as="geometry" />
        </mxCell>
      </root>
    </mxGraphModel>
  </diagram>
</mxfile>
